v 0.75 -0.05 -0.0
v 0.0 -0.05 -0.0
v 0.75 -0.047553 -0.015451
v 0.0 -0.047553 -0.015451
v 0.75 -0.040451 -0.029389
v 0.0 -0.040451 -0.029389
v 0.75 -0.029389 -0.040451
v 0.0 -0.029389 -0.040451
v 0.75 -0.015451 -0.047553
v 0.0 -0.015451 -0.047553
v 0.75 0.0 -0.05
v 0.0 0.0 -0.05
v 0.75 0.015451 -0.047553
v 0.0 0.015451 -0.047553
v 0.75 0.029389 -0.040451
v 0.0 0.029389 -0.040451
v 0.75 0.040451 -0.029389
v 0.0 0.040451 -0.029389
v 0.75 0.047553 -0.015451
v 0.0 0.047553 -0.015451
v 0.75 0.05 0.0
v 0.0 0.05 0.0
v 0.75 0.047553 0.015451
v 0.0 0.047553 0.015451
v 0.75 0.040451 0.029389
v 0.0 0.040451 0.029389
v 0.75 0.029389 0.040451
v 0.0 0.029389 0.040451
v 0.75 0.015451 0.047553
v 0.0 0.015451 0.047553
v 0.75 -0.0 0.05
v 0.0 -0.0 0.05
v 0.75 -0.015451 0.047553
v 0.0 -0.015451 0.047553
v 0.75 -0.029389 0.040451
v 0.0 -0.029389 0.040451
v 0.75 -0.040451 0.029389
v 0.0 -0.040451 0.029389
v 0.75 -0.047553 0.015451
v 0.0 -0.047553 0.015451
v 0.75 0.0 -0.1
v 0.75 -0.030902 -0.095106
v 0.75 0.030902 -0.095106
v 0.75 0.058779 -0.080902
v 0.75 0.080902 -0.058779
v 0.75 0.095106 -0.030902
v 0.75 0.1 0.0
v 0.75 0.095106 0.030902
v 0.75 0.080902 0.058779
v 0.75 0.058779 0.080902
v 0.75 0.030902 0.095106
v 0.75 -0.0 0.1
v 0.75 -0.030902 0.095106
v 0.75 -0.058779 -0.080902
v 0.75 -0.058779 0.080902
v 0.75 -0.080902 0.058779
v 0.75 -0.080902 -0.058779
v 0.75 -0.095106 -0.030902
v 0.75 -0.1 -0.0
v 0.75 -0.095106 0.030902
v 1.0 0.0 0.0
vn -0.0 -0.9876902960018251 -0.15642211858885965
vn -0.0 -0.8910004658267561 -0.45400238974756923
vn -0.0 -0.7071067811865475 -0.7071067811865475
vn -0.0 -0.45400238974756923 -0.8910004658267561
vn -0.0 -0.15642211858885965 -0.9876902960018251
vn 0.0 0.15642211858885965 -0.9876902960018251
vn 0.0 0.45400238974756923 -0.8910004658267561
vn 0.0 0.7071067811865475 -0.7071067811865475
vn 0.0 0.8910004658267561 -0.45400238974756923
vn 0.0 0.9876902960018251 -0.15642211858885965
vn 0.0 0.9876902960018251 0.15642211858885965
vn 0.0 0.8910004658267561 0.45400238974756923
vn 0.0 0.7071067811865475 0.7071067811865475
vn 0.0 0.45400238974756923 0.8910004658267561
vn 0.0 0.15642211858885965 0.9876902960018251
vn 0.0 -0.15642211858885965 0.9876902960018251
vn 0.0 -0.45400238974756923 0.8910004658267561
vn 0.0 -0.7071067811865475 0.7071067811865475
vn 0.0 -0.8910004658267561 0.45400238974756923
vn 0.0 -0.9876902960018251 0.15642211858885965
vn 1.0 -0.0 0.0
vn -1.0 0.0 -0.0
vn 0.3674395232069734 0.9185988080174334 0.14547998726416828
vn 0.3674403906218529 0.8286785029592576 0.4222315692518309
vn 0.36744065817539273 0.6576425179075764 0.6576425179075764
vn 0.3674403906218529 0.4222315692518309 0.8286785029592576
vn 0.3674395232069734 0.14547998726416828 0.9185988080174334
vn 0.3674395232069734 -0.14547998726416828 0.9185988080174334
vn 0.3674403906218529 -0.4222315692518309 0.8286785029592576
vn 0.36744065817539273 -0.6576425179075764 0.6576425179075764
vn 0.3674403906218529 -0.8286785029592576 0.4222315692518309
vn 0.3674395232069734 -0.9185988080174334 0.14547998726416828
vn 0.3674395232069734 -0.9185988080174334 -0.14547998726416828
vn 0.3674403906218529 -0.8286785029592576 -0.4222315692518309
vn 0.36744065817539273 -0.6576425179075764 -0.6576425179075764
vn 0.3674403906218529 -0.4222315692518309 -0.8286785029592576
vn 0.3674395232069734 -0.14547998726416828 -0.9185988080174334
vn 0.3674395232069734 0.14547998726416828 -0.9185988080174334
vn 0.3674403906218529 0.4222315692518309 -0.8286785029592576
vn 0.36744065817539273 0.6576425179075764 -0.6576425179075764
vn 0.3674403906218529 0.8286785029592576 -0.4222315692518309
vn 0.3674395232069734 0.9185988080174334 -0.14547998726416828
f 1//1 2//1 3//1
f 4//1 3//1 2//1
f 3//2 4//2 5//2
f 6//2 5//2 4//2
f 5//3 6//3 7//3
f 7//3 6//3 8//3
f 7//4 8//4 9//4
f 10//4 9//4 8//4
f 9//5 10//5 11//5
f 12//5 11//5 10//5
f 11//6 12//6 13//6
f 14//6 13//6 12//6
f 13//7 14//7 15//7
f 16//7 15//7 14//7
f 15//8 16//8 17//8
f 17//8 16//8 18//8
f 17//9 18//9 19//9
f 20//9 19//9 18//9
f 19//10 20//10 21//10
f 22//10 21//10 20//10
f 21//11 22//11 23//11
f 24//11 23//11 22//11
f 23//12 24//12 25//12
f 26//12 25//12 24//12
f 25//13 26//13 27//13
f 27//13 26//13 28//13
f 27//14 28//14 29//14
f 30//14 29//14 28//14
f 29//15 30//15 31//15
f 32//15 31//15 30//15
f 31//16 32//16 33//16
f 34//16 33//16 32//16
f 33//17 34//17 35//17
f 36//17 35//17 34//17
f 35//18 36//18 37//18
f 37//18 36//18 38//18
f 37//19 38//19 39//19
f 40//19 39//19 38//19
f 39//20 40//20 1//20
f 2//20 1//20 40//20
f 1//21 3//21 39//21
f 3//21 5//21 39//21
f 5//21 7//21 39//21
f 7//21 9//21 39//21
f 9//21 11//21 39//21
f 11//21 13//21 39//21
f 13//21 15//21 39//21
f 15//21 17//21 39//21
f 17//21 19//21 39//21
f 19//21 21//21 39//21
f 21//21 23//21 39//21
f 39//21 23//21 37//21
f 23//21 25//21 37//21
f 25//21 27//21 37//21
f 37//21 27//21 35//21
f 35//21 27//21 33//21
f 33//21 27//21 31//21
f 27//21 29//21 31//21
f 32//22 30//22 34//22
f 34//22 30//22 36//22
f 36//22 30//22 38//22
f 38//22 30//22 40//22
f 40//22 30//22 2//22
f 2//22 30//22 4//22
f 4//22 30//22 6//22
f 6//22 30//22 8//22
f 8//22 30//22 10//22
f 10//22 30//22 12//22
f 12//22 30//22 14//22
f 30//22 28//22 14//22
f 14//22 28//22 16//22
f 16//22 28//22 18//22
f 28//22 26//22 18//22
f 26//22 24//22 18//22
f 24//22 22//22 18//22
f 18//22 22//22 20//22
f 41//22 42//22 43//22
f 43//22 42//22 44//22
f 44//22 42//22 45//22
f 45//22 42//22 46//22
f 46//22 42//22 47//22
f 47//22 42//22 48//22
f 48//22 42//22 49//22
f 49//22 42//22 50//22
f 50//22 42//22 51//22
f 51//22 42//22 52//22
f 52//22 42//22 53//22
f 42//22 54//22 53//22
f 53//22 54//22 55//22
f 55//22 54//22 56//22
f 54//22 57//22 56//22
f 57//22 58//22 56//22
f 58//22 59//22 56//22
f 56//22 59//22 60//22
f 61//23 47//23 48//23
f 61//24 48//24 49//24
f 61//25 49//25 50//25
f 61//26 50//26 51//26
f 61//27 51//27 52//27
f 61//28 52//28 53//28
f 61//29 53//29 55//29
f 61//30 55//30 56//30
f 61//31 56//31 60//31
f 61//32 60//32 59//32
f 61//33 59//33 58//33
f 61//34 58//34 57//34
f 61//35 57//35 54//35
f 61//36 54//36 42//36
f 61//37 42//37 41//37
f 61//38 41//38 43//38
f 61//39 43//39 44//39
f 61//40 44//40 45//40
f 61//41 45//41 46//41
f 61//42 46//42 47//42
